<?xml version="1.0" encoding="utf-8"?>
<!-- Generator: Adobe Illustrator 22.0.1, SVG Export Plug-In . SVG Version: 6.00 Build 0)  -->
<svg version="1.1" id="Layer_1" xmlns="http://www.w3.org/2000/svg" xmlns:xlink="http://www.w3.org/1999/xlink" x="0px" y="0px"
	 viewBox="0 0 749.4 59.8" enable-background="new 0 0 749.4 59.8" xml:space="preserve">
<polygon fill="#9D9D9C" points="26.1,12.6 26.1,53.9 20.9,53.9 20.9,12.6 4.2,12.6 4.2,7.8 42.8,7.8 42.8,12.6 "/>
<path fill="#9D9D9C" d="M52.8,24.7c3.9-4.3,8.6-6.9,14.2-6.9c8.2,0,11.3,4.5,11.3,14v22.1h-5.1V33.2c0-7.2-1.4-10.4-7.6-10.4
	c-4.9,0-9.2,2.7-12.9,7.3v23.7h-5V4.4h5V24.7z"/>
<path fill="#9D9D9C" d="M118.1,49c-4.5,4-9.1,5.6-15.1,5.6c-9.3,0-16.6-5.1-16.6-18.1c0-13.2,7.5-18.7,16.9-18.7s15.3,5.6,15.6,17.2
	c0,0.8,0,1.4-0.2,2.5H91.3c0.4,9.5,5.6,12.9,11.9,12.9c4.8,0,8.8-1.4,12.9-4.8L118.1,49z M114.3,33.5c-0.5-8-4.7-11.6-11-11.6
	c-6,0-11.1,3.2-11.9,11.6H114.3z"/>
<path fill="#9D9D9C" d="M573.1,14.9c-5.1-2.3-10-3.3-15-3.3c-5.6,0-8.9,3.3-8.9,6.7c0,5.5,3.6,6.7,12.9,9.8
	c9.5,3.2,14.2,6.1,14.2,13.8c0,9-6.9,12.7-14.8,12.7c-6.8,0-14.4-2.5-19.8-6.5l2.1-3.9c5.6,3.6,12.2,5.7,17.5,5.7
	c6.2,0,9.8-2.6,9.8-7.3c0-5.3-2.7-7.2-13.1-10.4c-8.6-2.7-14.1-4.8-14.1-13.3c0-7,5.5-11.8,14.3-11.8c5.2,0,11.2,1.2,16.6,3.7
	L573.1,14.9z"/>
<path fill="#9D9D9C" d="M603.2,52.8c-3.3,1-5.5,1.4-7.6,1.4c-7.3,0-10.1-3.4-10.1-11.3v-20H580v-4.3h5.5V9.3h5v9.2h11.1v4.3h-11.1
	v19.9c0,5.4,2.1,6.7,6.7,6.7c1.4,0,2.6,0,5.4-0.5L603.2,52.8z"/>
<path fill="#9D9D9C" d="M642,36.5c0,11-6.8,18.1-17.6,18.1c-10.7,0-17.5-7-17.5-18.1c0-11.5,6.8-18.7,17.5-18.7
	C635.2,17.8,642,25,642,36.5 M637.1,36.4c0-8.8-4.8-14.2-12.6-14.2c-7.7,0-12.6,5.4-12.6,14.2c0,8.5,4.8,13.8,12.5,13.8
	C632.3,50.2,637.1,44.9,637.1,36.4"/>
<path fill="#9D9D9C" d="M655.6,25.9c1.7-4.8,6.1-8,11-8c1.3,0,2.5,0,4.5,0.2l-0.4,4.9c-1.8-0.2-3-0.2-4.3-0.2
	c-4.9,0-8.9,3.3-10.9,9.6v21.4h-5.1V18.5h5.1V25.9z"/>
<path fill="#9D9D9C" d="M705,49c-4.5,4-9.1,5.6-15.1,5.6c-9.3,0-16.6-5.1-16.6-18.1c0-13.2,7.5-18.7,16.9-18.7s15.3,5.6,15.6,17.2
	c0,0.8,0,1.4-0.2,2.5h-27.4c0.4,9.5,5.6,12.9,11.9,12.9c4.8,0,8.8-1.4,12.9-4.8L705,49z M701.2,33.5c-0.5-8-4.7-11.6-11-11.6
	c-6,0-11.1,3.2-11.9,11.6H701.2z"/>
<path fill="#9D9D9C" d="M718.8,8.3v12h-2.2v-12h-6v-2h14.2v2H718.8z M735.8,20.3H734l-4.9-10.4l-0.4,10.4h-2.1l0.6-14h2.2l5.2,10.9
	c0.1,0.3,0.2,0.6,0.3,0.8c0.1-0.3,0.2-0.6,0.3-0.8l5.2-10.9h2.2l0.6,14H741l-0.4-10.4L735.8,20.3z"/>
<path fill="#E4032D" d="M161.9,7c13.8,0,21.6,6.6,21.6,18.3c0,11.7-7.7,18.3-21.3,18.3h-5.6v9.9h-14.7V7H161.9z M162.2,32
	c4.6,0,7.1-2.4,7.1-6.7c0-4-2.7-6.2-7.5-6.2h-5.3V32H162.2z"/>
<path fill="#E4032D" d="M222,48.3c-6.1,4.2-11.5,6-18.1,6c-12.1,0-19.6-6.6-19.6-19c0-12.7,7.3-19.6,19.6-19.6
	C215,15.7,222,22,222,33.5c0,1.7-0.1,3-0.3,5.1H198c0.7,3.5,2.7,5,6.5,5c5.2,0,8.6-1,13.4-3.2L222,48.3z M209.7,31.3
	c-0.2-4-2.1-6.2-5.7-6.2c-3.2,0-5.3,2-6,6.2H209.7z"/>
<path fill="#E4032D" d="M252,51.4c-2.7,1.6-7.5,2.8-11.8,2.8c-9.2,0-13.1-4.1-13.1-14.7V27.8h-5.2V16.4h5.2V8.5h14.2v7.9h8.9v11.4
	h-8.9v11c0,2.8,0.9,4.4,4.4,4.4c1.6,0,3.1,0,4.9-0.1L252,51.4z"/>
<path fill="#15B4BB" d="M289.6,7c13.8,0,21.6,6.6,21.6,18.3c0,11.7-7.7,18.3-21.3,18.3h-5.6v9.9h-14.7V7H289.6z M289.8,32
	c4.6,0,7.1-2.4,7.1-6.7c0-4-2.7-6.2-7.5-6.2h-5.3V32H289.8z"/>
<path fill="#15B4BB" d="M312.6,18.6c9.3-2.4,13.1-2.9,17-2.9c11.4,0,16.2,4.5,16.2,15.3v22.6h-14v-4.4c-2.9,3.2-6.2,5-10.4,5
	c-7.9,0-12.5-2.7-12.5-11.8c0-7.9,5.4-11.5,16.2-11.5h6.7c0-3.2-0.9-4.8-4.8-4.8c-2.7,0-6.8,0.5-12.2,1.6L312.6,18.6z M327,37.4
	c-3.1,0-4.9,0.8-4.9,3.3c0,2.2,1.6,3.6,4.1,3.6c2.3,0,4.1-1,5.6-2.2v-4.7H327z"/>
<path fill="#15B4BB" d="M363.5,23.5c2.8-5.4,5.7-7.8,10-7.8c1.3,0,2.6,0,4.7,0.2L377.2,30c-1.9-0.2-3.1-0.2-4.5-0.2
	c-4.6,0-7.8,1.1-9.3,6.4v17.3h-14.2V16.3h14.2V23.5z"/>
<path fill="#15B4BB" d="M414.8,48.3c-6.1,4.2-11.5,6-18.1,6c-12.1,0-19.6-6.6-19.6-19c0-12.7,7.3-19.6,19.6-19.6
	c11.1,0,18.1,6.3,18.1,17.9c0,1.7-0.1,3-0.3,5.1h-23.6c0.7,3.5,2.7,5,6.5,5c5.2,0,8.6-1,13.4-3.2L414.8,48.3z M402.5,31.3
	c-0.2-4-2.1-6.2-5.7-6.2c-3.2,0-5.3,2-6,6.2H402.5z"/>
<path fill="#15B4BB" d="M431.4,21.3c5-3.8,8.7-5.6,13-5.6c8,0,11.1,4,11.1,14.1v23.7h-14.2V33.8c0-3.9-0.7-5.1-3.5-5.1
	c-2.4,0-4.5,1.4-6.4,3.4v21.4h-14.2V16.3h14.2V21.3z"/>
<path fill="#15B4BB" d="M486.2,51.4c-2.7,1.6-7.5,2.8-11.8,2.8c-9.2,0-13.1-4.1-13.1-14.7V27.8h-5.2V16.4h5.2V8.5h14.2v7.9h8.9v11.4
	h-8.9v11c0,2.8,0.9,4.4,4.4,4.4c1.6,0,3.1,0,4.9-0.1L486.2,51.4z"/>
<path fill="#15B4BB" d="M516.8,27.8c-6.5-1.9-10.9-2.4-13-2.4c-1.3,0-2.4,0.4-2.4,1.5c0,1.8,1.9,1.8,8.7,3.7c7.2,2.1,10.3,5,10.3,11
	c0,8.2-6.3,12.6-15.8,12.6c-5.3,0-12.8-1.9-18.7-4.7l3.5-9.3c5.8,2.6,11.2,4.1,14.2,4.1c2,0,2.7-0.5,2.7-1.4c0-1.5-2-1.8-7.9-3.5
	c-7.1-2.1-10.3-5.2-10.3-11.7c0-7.3,5.4-12.1,13.9-12.1c5.2,0,10,0.3,18.1,2.5L516.8,27.8z"/>
<rect x="-57" y="-50" fill="none" width="850.4" height="147.8"/>
</svg>
